<svg width="500" height="104" viewBox="0 0 500 104" fill="none" xmlns="http://www.w3.org/2000/svg">
<path d="M34 67.1104C67.0131 42.7242 105.686 40.8483 125.493 50.2276C161.148 67.1104 152.847 99 188.69 99C228.407 99 234.738 65.5911 257.546 50.2276C286.786 30.5311 339.607 40.8483 354.699 50.2276C369.79 59.6069 406.576 76.4897 466 83.0552" stroke="black" stroke-width="9" stroke-dasharray="5 5"/>
<path fill-rule="evenodd" clip-rule="evenodd" d="M89 17.2703C89 9.17622 95.0705 6 100.27 6C105.47 6 111.541 9.17622 111.541 17.2703C111.541 22.7021 103.618 33.5078 100.751 37.4181C100.569 37.666 100.408 37.8861 100.27 38.0755C97.6704 34.8992 89 22.7582 89 17.2703ZM99.625 25H102.039V13.5781H100.055L96.375 16.5078L97.5391 17.9609L98.8516 16.9062C99.0078 16.7812 99.2865 16.5182 99.6875 16.1172L99.6484 17.3047L99.625 18.3906V25Z" fill="black"/>
<path fill-rule="evenodd" clip-rule="evenodd" d="M189 70.2703C189 62.1762 195.071 59 200.27 59C205.47 59 211.541 62.1762 211.541 70.2703C211.541 75.7021 203.618 86.5078 200.751 90.4181C200.569 90.666 200.408 90.8861 200.27 91.0755C197.67 87.8992 189 75.7582 189 70.2703ZM196.07 78H204.055V75.9688H199.078V75.8594L200.547 74.4766C201.526 73.5807 202.208 72.8906 202.594 72.4062C202.984 71.9219 203.271 71.4505 203.453 70.9922C203.641 70.5286 203.734 70.0339 203.734 69.5078C203.734 68.9036 203.583 68.3672 203.281 67.8984C202.979 67.4297 202.555 67.0651 202.008 66.8047C201.461 66.5443 200.831 66.4141 200.117 66.4141C199.576 66.4141 199.086 66.4688 198.648 66.5781C198.211 66.6823 197.807 66.8333 197.438 67.0312C197.068 67.2292 196.602 67.5677 196.039 68.0469L197.352 69.6016C197.805 69.2266 198.24 68.9375 198.656 68.7344C199.073 68.5312 199.503 68.4297 199.945 68.4297C200.367 68.4297 200.703 68.5417 200.953 68.7656C201.208 68.9896 201.336 69.3307 201.336 69.7891C201.336 70.0964 201.279 70.3932 201.164 70.6797C201.049 70.9661 200.862 71.2786 200.602 71.6172C200.341 71.9505 199.786 72.5521 198.938 73.4219L196.07 76.3203V78Z" fill="black"/>
<path fill-rule="evenodd" clip-rule="evenodd" d="M289 11.2703C289 3.17622 295.071 0 300.27 0C305.47 0 311.541 3.17622 311.541 11.2703C311.541 16.7021 303.618 27.5078 300.751 31.4181C300.569 31.666 300.408 31.8861 300.27 32.0755C297.67 28.8992 289 16.7582 289 11.2703ZM302.961 11.9531C303.393 11.4531 303.609 10.8464 303.609 10.1328C303.609 9.27865 303.266 8.61198 302.578 8.13281C301.896 7.65365 300.964 7.41406 299.781 7.41406C298.339 7.41406 297.096 7.78906 296.055 8.53906L297.172 10.2031C297.646 9.89583 298.076 9.67969 298.461 9.55469C298.852 9.42969 299.234 9.36719 299.609 9.36719C300.693 9.36719 301.234 9.79948 301.234 10.6641C301.234 11.2266 301.029 11.625 300.617 11.8594C300.211 12.0885 299.565 12.2031 298.68 12.2031H297.797V14.0547H298.664C299.622 14.0547 300.32 14.1667 300.758 14.3906C301.195 14.6146 301.414 14.9948 301.414 15.5312C301.414 16.1302 301.224 16.5651 300.844 16.8359C300.464 17.1068 299.875 17.2422 299.078 17.2422C298.557 17.2422 298.031 17.1719 297.5 17.0312C296.969 16.8906 296.482 16.7083 296.039 16.4844V18.5391C296.997 18.9505 298.096 19.1562 299.336 19.1562C300.815 19.1562 301.953 18.8516 302.75 18.2422C303.547 17.6276 303.945 16.7708 303.945 15.6719C303.945 14.9167 303.708 14.3177 303.234 13.875C302.76 13.4271 302.062 13.1458 301.141 13.0312V12.9844C301.922 12.7969 302.529 12.4531 302.961 11.9531Z" fill="black"/>
<path fill-rule="evenodd" clip-rule="evenodd" d="M389 41.2703C389 33.1762 395.071 30 400.27 30C405.47 30 411.541 33.1762 411.541 41.2703C411.541 46.7021 403.618 57.5078 400.751 61.4181C400.569 61.666 400.408 61.8861 400.27 62.0755C397.67 58.8992 389 46.7582 389 41.2703ZM402.938 46.6328H404.312V44.7578H402.938V37.5781H400.711L395.703 44.9531V46.6328H400.578V49H402.938V46.6328ZM400.578 42.8203V44.7578H397.828L399.922 41.5938C400.193 41.1875 400.424 40.7708 400.617 40.3438H400.68C400.664 40.4427 400.643 40.7995 400.617 41.4141C400.591 42.0286 400.578 42.4974 400.578 42.8203Z" fill="black"/>
<path d="M14 90C6.26801 90 0 83.732 0 76C0 68.268 6.26801 62 14 62C21.732 62 28 68.268 28 76C27.9915 83.7285 21.7285 89.9915 14 90ZM14 64.8C7.81441 64.8 2.8 69.8144 2.8 76C2.8 82.1856 7.81441 87.2 14 87.2C20.1856 87.2 25.2 82.1856 25.2 76C25.1931 69.8173 20.1827 64.8069 14 64.8ZM19.6 83H8.4V80.2H19.6V83ZM9.1 76C7.9402 76 7 75.0598 7 73.9C7 72.7402 7.9402 71.8 9.1 71.8C10.2598 71.8 11.2 72.7402 11.2 73.9C11.2 75.0598 10.2598 76 9.1 76ZM18.8902 75.9804C17.7358 75.9804 16.8 75.0446 16.8 73.8902C16.8 72.7358 17.7358 71.8 18.8902 71.8C20.0446 71.8 20.9804 72.7358 20.9804 73.8902C20.9789 75.0439 20.0439 75.9789 18.8902 75.9804Z" fill="black"/>
<path d="M486 97C478.268 97 472 90.732 472 83C472 75.268 478.268 69 486 69C493.732 69 500 75.268 500 83C499.992 90.7285 493.728 96.9915 486 97ZM486 71.8C479.814 71.8 474.8 76.8144 474.8 83C474.8 89.1856 479.814 94.2 486 94.2C492.186 94.2 497.2 89.1856 497.2 83C497.193 76.8173 492.183 71.8069 486 71.8ZM486 91.4C483.788 91.4374 481.697 90.392 480.4 88.6C479.77 87.7576 479.296 86.8093 479 85.8H493C493 85.8 493 85.8 493 85.8112C492.699 86.8153 492.226 87.7591 491.6 88.6C490.303 90.3918 488.212 91.4372 486 91.4ZM481.1 83C479.94 83 479 82.0598 479 80.9C479 79.7402 479.94 78.8 481.1 78.8C482.26 78.8 483.2 79.7402 483.2 80.9C483.2 82.0598 482.26 83 481.1 83ZM490.89 82.9804C489.736 82.9804 488.8 82.0446 488.8 80.8902C488.8 79.7358 489.736 78.8 490.89 78.8C492.045 78.8 492.98 79.7358 492.98 80.8902C492.979 82.0439 492.044 82.9789 490.89 82.9804Z" fill="black"/>
</svg>
